# AST/ASF file generated using VICON BodyLanguage
# -----------------------------------------------
:version 1.10
:name VICON
:units
  mass 1.0
  length 0.45
  angle deg
:documentation
   .ast/.asf automatically generated from VICON data using
   VICON BodyBuilder and BodyLanguage model FoxedUp or BRILLIANT.MOD
:root
   order TX TY TZ RX RY RZ
   axis XYZ
   position 0 0 0  
   orientation 0 -0 0 
:bonedata
  begin
     id 1 
     name lhipjoint
     direction 0.432694 -0.693742 0.575759 
     length 2.19277 
     axis 0 -0 0  XYZ
  end
  begin
     id 2 
     name lfemur
     direction 0.34202 -0.939693 0  
     length 6.69022  
     axis 0 -0 20  XYZ
    dof rx ry rz
    limits (-160.0 20.0)
           (-70.0 70.0)
           (-60.0 70.0)
  end
  begin
     id 3 
     name ltibia
     direction 0.34202 -0.939693 0   
     length 6.50337   
     axis 0 -0 20   XYZ
    dof rx
    limits (-10.0 170.0)
  end
  begin
     id 4 
     name lfoot
     direction 0.158999 -0.435969 0.885805   
     length 2.70564   
     axis -90 -1.13533e-015 20   XYZ
    dof rx rz
    limits (-45.0 90.0)
           (-70.0 20.0)
  end
  begin
     id 5 
     name ltoes
     direction -0.00592919 0.00964381 0.999936   
     length 1.29929   
     axis -90 -1.13533e-015 20   XYZ
    dof rx
    limits (-90.0 20.0)
  end
  begin
     id 6 
     name rhipjoint
     direction -0.414359 -0.700339 0.581234   
     length 2.17212  
     axis 0 -0 0  XYZ 
  end
  begin
     id 7 
     name rfemur
     direction -0.34202 -0.939693 0   
     length 7.17659   
     axis 0 -0 -20   XYZ
    dof rx ry rz
    limits (-160.0 20.0)
           (-70.0 70.0)
           (-70.0 60.0)
  end
  begin
     id 8 
     name rtibia
     direction -0.34202 -0.939693 0   
     length 6.36669   
     axis 0 -0 -20   XYZ
    dof rx
    limits (-10.0 170.0)
 end
 begin
     id 9 
     name rfoot
     direction -0.137064 -0.37658 0.916188   
     length 2.22351  
     axis -90 1.13533e-015 -20   XYZ
    dof rx rz
    limits (-45.0 90.0)
           (-20.0 70.0)
  end
  begin
     id 10 
     name rtoes
     direction -0.000784077 -0.00289101 0.999996   
     length 1.09522   
     axis -90 1.13533e-015 -20   XYZ
    dof rx
    limits (-90.0 20.0)
  end
  begin
     id 11 
     name lowerback
     direction -0.0176242 0.984912 -0.172157   
     length 1.65301   
     axis 0 -0 0   XYZ
    dof rx ry rz
    limits (-20.0 45.0)
           (-30.0 30.0)
           (-30.0 30.0)
  end
  begin
     id 12 
     name upperback
     direction -0.00218128 0.998776 -0.0494072   
     length 1.67776   
     axis 0 -0 0   XYZ
    dof rx ry rz
    limits (-20.0 45.0)
           (-30.0 30.0)
           (-30.0 30.0)
  end
  begin
     id 13 
     name thorax
     direction 0.00544186 0.999658 0.0255711   
     length 1.72293   
     axis 0 -0 0   XYZ
    dof rx ry rz
    limits (-20.0 45.0)
           (-30.0 30.0)
           (-30.0 30.0)
  end
  begin
     id 14 
     name lowerneck
     direction -0.105325 0.983841 0.144785   
     length 2.14226   
     axis 0 -0 0   XYZ
    dof rx ry rz
    limits (-20.0 45.0)
           (-30.0 30.0)
           (-30.0 30.0)
  end
  begin
     id 15 
     name upperneck
     direction 0.0547957 0.988053 -0.144041   
     length 2.17508   
     axis 0 -0 0   XYZ
    dof rx ry rz
    limits (-20.0 45.0)
           (-30.0 30.0)
           (-30.0 30.0)
  end
  begin
     id 16
     name head
     direction 0.0247488 0.997534 -0.0656813  
     length 2.20048  
     axis 0 -0 0   XYZ
    dof rx ry rz
    limits (-20.0 45.0)
           (-30.0 30.0)
           (-30.0 30.0)
  end
  begin
     id 17 
     name lclavicle
     direction 0.820559 0.567247 -0.0701026  
     length 4.09615  
     axis 0 -0 0   XYZ
    dof ry rz
    limits (-20.0 10.0)
           (0.0 20.0)
  end
  begin
     id 18 
     name lhumerus
     direction 0.999977 -0.0067566 -9.96392e-005   
     length 4.59333   
     axis -180 -30 -90   XYZ
    dof rx ry rz
    limits (-60.0 90.0)
           (-90.0 90.0)
           (-90.0 90.0)
  end
  begin
     id 19
     name lradius
     direction 1 -4.48982e-011 -2.53425e-027   
     length 2.81151   
     axis -180 -30 -90   XYZ
    dof rx
    limits (-10.0 170.0)
  end
  begin
     id 20
     name lwrist
     direction 1 -4.48939e-011 -7.39254e-028   
     length 1.40576   
     axis 2.56395e-016 90 90   XYZ
    dof ry
    limits (-180.0 0.0)
 end
  begin
     id 21 
     name lhand
     direction 1 -4.48939e-011 -1.47851e-027   
     length 0.895651   
     axis 9.43423e-016 90 90   XYZ
    dof rx rz
    limits (-90.0 90.0)
           (-45.0 45.0)
  end
  begin
     id 22 
     name lfingers
     direction 1 -4.48978e-011 -2.95702e-027   
     length 0.722097   
     axis 1.88685e-015 90 90   XYZ
    dof rx
    limits (0.0 90.0)
  end
  begin
     id 23
     name lthumb
     direction 0.707107 -6.34931e-011 0.707107   
     length 1.03679   
     axis -90 45 -9.86935e-015   XYZ
    dof rx rz
    limits (-45.0 45.0)
           (-45.0 45.0)
  end
  begin
     id 24 
     name rclavicle
     direction -0.831414 0.553102 -0.0531864   
     length 4.24872  
     axis 0 -0 0   XYZ 
    dof ry rz
    limits (-10.0 20.0)
           (-20.0 0.0)
  end
  begin
     id 25 
     name rhumerus
     direction -0.999916 -0.000939607 0.0129331  
     length 4.74834   
     axis -180 30 90   XYZ
    dof rx ry rz
    limits (-90.0 60.0)
           (-90.0 90.0)
           (-90.0 90.0)
  end
  begin
     id 26 
     name rradius
     direction -1 -4.48956e-011 -1.31752e-027   
     length 2.79907   
     axis -180 30 90   XYZ
    dof rx
    limits (-10.0 170.0)
  end
  begin
     id 27 
     name rwrist
     direction -1 -4.4897e-011 -7.39254e-028   
     length 1.39954   
     axis 2.56395e-016 -90 -90   XYZ
    dof ry
    limits (-180.0 0.0)
  end
  begin
     id 28
     name rhand
     direction -0.999997 -0.00250697 0.000800838   
     length 0.953304   
     axis 9.43423e-016 -90 -90   XYZ
    dof rx rz
    limits (-90.0 90.0)
           (-45.0 45.0)
  end
  begin
     id 29
     name rfingers
     direction -1 -4.48954e-011 -2.95702e-027   
     length 0.763342   
     axis 1.88685e-015 -90 -90   XYZ
    dof rx
    limits (0.0 90.0)
  end
  begin
     id 30
     name rthumb
     direction -0.709701 -0.00217037 0.7045   
     length 1.10115   
     axis -90 -45 9.86935e-015   XYZ
    dof rx rz
    limits (-45.0 45.0)
           (-45.0 45.0)
  end
:hierarchy
  begin
    root lhipjoint rhipjoint lowerback
    lhipjoint lfemur
    lfemur ltibia
    ltibia lfoot
    lfoot ltoes
    rhipjoint rfemur
    rfemur rtibia
    rtibia rfoot
    rfoot rtoes
    lowerback upperback
    upperback thorax
    thorax lowerneck lclavicle rclavicle
    lowerneck upperneck
    upperneck head
    lclavicle lhumerus
    lhumerus lradius
    lradius lwrist
    lwrist lhand lthumb
    lhand lfingers
    rclavicle rhumerus
    rhumerus rradius
    rradius rwrist
    rwrist rhand rthumb
    rhand rfingers
  end

#!OML:ASF G:\ViconDB\ViconDB\414\test\team2\shane.ASF
:FULLY-SPECIFIED
:DEGREES
98
root 1.60383 16.6292 -8.7023 -10.832 5.44088 -7.9596
lowerback 7.75306 -1.11839 3.66553
upperback 4.46015 -1.2142 4.60582
thorax 0.298461 -0.592189 2.79176
lowerneck -15.6315 -4.83703 -9.20214
upperneck 19.0591 -6.17992 8.07271
head 9.10401 -2.72771 3.51177
rclavicle 2.97183e-014 1.35174e-014
rhumerus -41.2126 -8.04464 -73.3267
rradius 28.4435
rwrist 41.553
rhand -33.9113 -16.0803
rfingers 7.12502
rthumb -7.09398 -45.9414
lclavicle 2.97183e-014 1.35174e-014
lhumerus -25.9885 -22.1449 99.2055
lradius 30.7563
lwrist -18.3412
lhand -41.4324 6.22196
lfingers 7.12502
lthumb -14.3483 35.7061
rfemur -1.65546 -19.4755 27.2382
rtibia 33.6322
rfoot -24.716 4.85307
rtoes -3.96876
lfemur 5.20429 7.31545 4.78724
ltibia 64.8814
lfoot -13.3864 -19.6901
ltoes -9.51879
99
root 1.59176 16.6495 -8.51893 -10.7763 5.04445 -7.60152
lowerback 7.62599 -0.875256 3.47244
upperback 4.57343 -0.919839 4.41665
thorax 0.478178 -0.4447 2.67814
lowerneck -15.5766 -4.85694 -8.96118
upperneck 19.0334 -6.26895 8.06126
head 9.08491 -2.75415 3.45607
rclavicle -6.78353e-015 -1.51076e-014
rhumerus -38.5427 -6.53607 -75.9692
rradius 29.3297
rwrist 40.0968
rhand -34.0899 -15.8774
rfingers 7.12502
rthumb -7.26637 -45.7326
lclavicle -6.78353e-015 -1.51076e-014
lhumerus -27.0647 -20.9387 98.4774
lradius 28.1441
lwrist -18.9159
lhand -41.437 6.5258
lfingers 7.12502
lthumb -14.3528 36.0096
rfemur -0.53509 -19.2016 26.7778
rtibia 32.8984
rfoot -24.8307 5.2205
rtoes -3.72258
lfemur 3.52609 7.99204 4.3652
ltibia 65.8242
lfoot -14.6108 -18.9895
ltoes -9.57318
100
root 1.57392 16.663 -8.33528 -10.7097 4.60798 -7.4263
lowerback 7.57086 -0.656004 3.43789
upperback 4.62648 -0.637923 4.27124
thorax 0.555552 -0.301738 2.52517
lowerneck -15.5874 -4.91318 -8.65287
upperneck 19.0916 -6.40133 7.94294
head 9.10456 -2.80527 3.34618
rclavicle -3.26007e-014 -2.66371e-014
rhumerus -36.2059 -4.9858 -78.3775
rradius 30.5703
rwrist 39.4122
rhand -34.5901 -15.9548
rfingers 7.12502
rthumb -7.74918 -45.7928
lclavicle -3.26007e-014 -2.66371e-014
lhumerus -28.4908 -20.1595 97.7404
lradius 26.0335
lwrist -18.9868
lhand -41.3075 6.81747
lfingers 7.12502
lthumb -14.228 36.3101
rfemur 0.532744 -18.9116 26.5515
rtibia 32.1789
rfoot -24.933 5.56317
rtoes -3.84146
lfemur 1.8847 8.67648 4.12328
ltibia 66.4413
lfoot -15.6669 -18.7876
ltoes -10.0484
101
root 1.5603 16.6744 -8.15591 -10.7503 4.02931 -7.21264
lowerback 7.76742 -0.319209 3.56366
upperback 4.65119 -0.171433 4.1113
thorax 0.462649 -0.0640561 2.25688
lowerneck -15.4859 -5.04657 -8.59577
upperneck 19.1016 -6.61995 7.9844
head 9.10922 -2.9011 3.32301
rclavicle -8.07563e-015 -3.49861e-014
rhumerus -34.0214 -3.45985 -80.4618
rradius 31.9282
rwrist 39.4452
rhand -34.173 -15.6647
rfingers 7.12502
rthumb -7.34658 -45.5172
lclavicle -8.07563e-015 -3.49861e-014
lhumerus -29.8689 -19.2443 96.9755
lradius 23.859
lwrist -19.3033
lhand -41.0513 7.02118
lfingers 7.12502
lthumb -13.9811 36.5311
rfemur 1.731 -18.5896 26.2304
rtibia 31.444
rfoot -25.0304 6.05665
rtoes -4.17177
lfemur 0.400659 9.30354 3.74447
ltibia 66.7099
lfoot -16.7522 -18.7654
ltoes -9.98493
102
root 1.54705 16.6832 -7.97632 -10.7271 3.48983 -6.92108
lowerback 7.95548 -0.0649185 3.40158
upperback 4.61184 0.168685 3.93937
thorax 0.312335 0.103816 2.14442
lowerneck -15.3631 -5.10518 -8.56084
upperneck 19.2441 -6.76932 8.1564
head 9.15464 -2.95264 3.36034
rclavicle 3.18304e-014 -7.95139e-015
rhumerus -32.1853 -3.22823 -82.0757
rradius 34.1531
rwrist 39.9092
rhand -33.8915 -15.131
rfingers 7.12502
rthumb -7.07483 -44.9928
lclavicle 3.18304e-014 -7.95139e-015
lhumerus -31.4692 -18.1873 95.9304
lradius 22.0501
lwrist -19.6999
lhand -40.7853 7.95204
lfingers 7.12502
lthumb -13.7247 37.4794
rfemur 2.87116 -18.5675 25.7346
rtibia 30.7185
rfoot -25.1454 6.78558
rtoes -4.46144
lfemur -1.08346 9.87385 3.1461
ltibia 66.651
lfoot -17.8318 -18.8192
ltoes -10.3134
103
root 1.53432 16.6862 -7.79868 -10.7138 2.93278 -6.84659
lowerback 8.19728 0.185075 3.48396
upperback 4.54811 0.523956 3.86591
thorax 0.109827 0.282062 1.99377
lowerneck -15.3286 -5.13956 -8.26559
upperneck 19.3636 -6.85409 7.94739
head 9.17845 -2.99223 3.22879
rclavicle 9.52924e-015 3.45885e-014
rhumerus -30.4067 -0.854607 -84.4491
rradius 36.4888
rwrist 35.8223
rhand -34.701 -14.5954
rfingers 7.12502
rthumb -7.85617 -44.4294
lclavicle 9.52924e-015 3.45885e-014
lhumerus -33.1482 -16.9222 94.8165
lradius 20.2593
lwrist -20.3899
lhand -40.5668 8.07925
lfingers 7.12502
lthumb -13.5141 37.6207
rfemur 4.01907 -18.5313 25.4748
rtibia 29.9353
rfoot -25.3069 7.36008
rtoes -5.26608
lfemur -2.59357 10.3513 2.77112
ltibia 66.316
lfoot -18.7217 -19.2628
ltoes -10.3734
104
root 1.52317 16.6944 -7.62147 -10.7244 2.44051 -6.70856
lowerback 8.45192 0.462215 3.55354
upperback 4.49831 0.914583 3.7841
thorax -0.0834028 0.477677 1.83606
lowerneck -15.3189 -5.25454 -8.29836
upperneck 19.4854 -7.02402 7.98446
head 9.23701 -3.06931 3.2253
rclavicle 2.11209e-016 6.75868e-015
rhumerus -28.7518 0.378375 -85.8489
rradius 38.5124
rwrist 36.0596
rhand -35.8079 -14.4311
rfingers 7.12502
rthumb -8.92442 -44.2224
lclavicle 2.11209e-016 6.75868e-015
lhumerus -34.6338 -15.2909 93.295
lradius 18.3874
lwrist -22.3091
lhand -40.349 8.26738
lfingers 7.12502
lthumb -13.3042 37.8227
rfemur 5.20428 -18.5416 25.0615
rtibia 29.1207
rfoot -25.2634 8.44836
rtoes -5.08526
lfemur -3.96388 10.5962 2.18017
ltibia 65.6499
lfoot -19.7334 -19.5548
ltoes -10.3285
105
root 1.51706 16.7017 -7.43565 -10.7346 1.64423 -6.64762
lowerback 8.63527 0.844558 3.90309
upperback 4.46428 1.45918 3.62776
thorax -0.209269 0.755522 1.42974
lowerneck -15.1814 -5.31993 -7.91694
upperneck 19.4454 -7.17815 7.81225
head 9.19009 -3.13439 3.08306
rclavicle 1.80149e-015 -1.43125e-014
rhumerus -27.3315 2.95994 -87.5709
rradius 41.3396
rwrist 34.0962
rhand -35.9788 -14.9845
rfingers 7.12502
rthumb -9.08932 -44.7686
lclavicle 1.80149e-015 -1.43125e-014
lhumerus -36.1319 -13.922 91.6294
lradius 16.8383
lwrist -23.2413
lhand -39.988 8.68885
lfingers 7.12502
lthumb -12.9563 38.2666
rfemur 6.44247 -18.3234 24.7664
rtibia 28.2594
rfoot -25.3084 9.27309
rtoes -5.1615
lfemur -5.20018 11.0766 1.65709
ltibia 64.7357
lfoot -20.6605 -19.5603
ltoes -9.81371
106
root 1.51077 16.7062 -7.25099 -10.7111 1.00565 -6.48085
lowerback 8.76452 1.20078 4.15254
upperback 4.42914 1.95755 3.37167
thorax -0.29722 1.00942 0.979441
lowerneck -15.2339 -5.55911 -7.84964
upperneck 19.691 -7.59115 8.01723
head 9.32744 -3.29665 3.08758
rclavicle -5.26779e-015 -1.05356e-014
rhumerus -26.039 4.38918 -89.1536
rradius 44.2967
rwrist 32.4532
rhand -36.8857 -15.4603
rfingers 7.12502
rthumb -9.96441 -45.2044
lclavicle -5.26779e-015 -1.05356e-014
lhumerus -37.5455 -12.3146 89.3227
lradius 15.4076
lwrist -25.6857
lhand -39.5111 8.75975
lfingers 7.12502
lthumb -12.4964 38.3661
rfemur 7.67142 -18.3418 24.2663
rtibia 27.3892
rfoot -25.2865 10.308
rtoes -5.25385
lfemur -6.42518 11.3667 0.963925
ltibia 63.5758
lfoot -21.526 -19.4327
ltoes -10.1682
107
root 1.50617 16.7123 -7.06517 -10.5614 0.443886 -6.319
lowerback 8.80183 1.50812 4.35615
upperback 4.34334 2.38483 3.17505
thorax -0.383917 1.22552 0.623231
lowerneck -15.2476 -5.64582 -7.63774
upperneck 19.7324 -7.77351 8.04184
head 9.35284 -3.36208 3.03588
rclavicle -1.17904e-014 -4.37326e-014
rhumerus -24.8473 6.13257 -90.5532
rradius 47.5458
rwrist 30.5141
rhand -37.1735 -15.7809
rfingers 7.12502
rthumb -10.242 -45.5115
lclavicle -1.17904e-014 -4.37326e-014
lhumerus -39.0872 -11.1952 87.2791
lradius 14.2647
lwrist -26.8935
lhand -38.9493 8.53039
lfingers 7.12502
lthumb -11.9548 38.169
rfemur 8.81735 -18.5743 23.7055
rtibia 26.3987
rfoot -25.1831 11.7417
rtoes -4.43959
lfemur -7.73366 11.6743 0.230252
ltibia 62.2006
lfoot -22.4041 -19.1186
ltoes -10.3008
